<svg width="30" height="30" viewBox="0 0 30 30" fill="none" xmlns="http://www.w3.org/2000/svg">
<path d="M6.42928 10.686L5.82928 17.086C5.65869 18.9057 5.57339 19.8155 5.87533 20.5183C6.14058 21.1356 6.6054 21.6461 7.1953 21.9678C7.86681 22.334 8.78065 22.334 10.6083 22.334H19.0662C20.8939 22.334 21.8077 22.334 22.4792 21.9678C23.0691 21.6461 23.534 21.1356 23.7992 20.5183C24.1012 19.8155 24.0159 18.9057 23.8453 17.086L23.2453 10.686C23.1012 9.14934 23.0292 8.38102 22.6836 7.80014C22.3793 7.28856 21.9296 6.8791 21.3919 6.62383C20.7813 6.33398 20.0096 6.33398 18.4662 6.33398H11.2083C9.66497 6.33398 8.89329 6.33398 8.2827 6.62383C7.74494 6.8791 7.29529 7.28856 6.99094 7.80014C6.64537 8.38102 6.57334 9.14933 6.42928 10.686Z" fill="#D9D9D9"/>
<path d="M6.42928 10.686L5.82928 17.086C5.65869 18.9057 5.57339 19.8155 5.87533 20.5183C6.14058 21.1356 6.6054 21.6461 7.1953 21.9678C7.86681 22.334 8.78065 22.334 10.6083 22.334H19.0662C20.8939 22.334 21.8077 22.334 22.4792 21.9678C23.0691 21.6461 23.534 21.1356 23.7992 20.5183C24.1012 19.8155 24.0159 18.9057 23.8453 17.086L23.2453 10.686C23.1012 9.14934 23.0292 8.38102 22.6836 7.80014C22.3793 7.28856 21.9296 6.8791 21.3919 6.62383C20.7813 6.33398 20.0096 6.33398 18.4662 6.33398H11.2083C9.66497 6.33398 8.89329 6.33398 8.2827 6.62383C7.74494 6.8791 7.29529 7.28856 6.99094 7.80014C6.64537 8.38102 6.57334 9.14933 6.42928 10.686Z" fill="white"/>
<path d="M19.0662 9V6C19.0662 3.79086 17.2753 2 15.0662 2C12.857 2 11.0662 3.79086 11.0662 6V9M6.42928 10.686L5.82928 17.086C5.65869 18.9057 5.57339 19.8155 5.87533 20.5183C6.14058 21.1356 6.6054 21.6461 7.1953 21.9678C7.86681 22.334 8.78065 22.334 10.6083 22.334H19.0662C20.8939 22.334 21.8077 22.334 22.4792 21.9678C23.0691 21.6461 23.534 21.1356 23.7992 20.5183C24.1012 19.8155 24.0159 18.9057 23.8453 17.086L23.2453 10.686C23.1012 9.14934 23.0292 8.38102 22.6836 7.80014C22.3793 7.28856 21.9296 6.8791 21.3919 6.62383C20.7813 6.33399 20.0096 6.33398 18.4662 6.33398H11.2083C9.66497 6.33398 8.89329 6.33399 8.2827 6.62383C7.74494 6.8791 7.29529 7.28856 6.99094 7.80014C6.64537 8.38102 6.57334 9.14933 6.42928 10.686Z" stroke="white" stroke-width="2" stroke-linecap="round" stroke-linejoin="round"/>
<path d="M26.5726 3.85381L3.28354 27.1429" stroke="#2B6181" stroke-width="4" stroke-linecap="square"/>
<path d="M25.174 2.86745L3.69149 24.3512" stroke="white" stroke-width="2" stroke-linecap="round"/>
</svg>
